PathFileType	4	(X/Y/Z)	path1_08_0-572.trc
DataRate	CameraRate	NumFrames	NumMarkers	Units	OrigDataRate	OrigDataStartFrame	OrigNumFrames
30	30	8	22	m	30	357	572
Frame#	Time	Hip			RHip			RKnee			RAnkle			RBigToe			RSmallToe			RHeel			LHip			LKnee			LAnkle			LBigToe			LSmallToe			LHeel			Neck			Head			Nose			RShoulder			RElbow			RWrist			LShoulder			LElbow			LWrist		
		X1	Y1	Z1	X2	Y2	Z2	X3	Y3	Z3	X4	Y4	Z4	X5	Y5	Z5	X6	Y6	Z6	X7	Y7	Z7	X8	Y8	Z8	X9	Y9	Z9	X10	Y10	Z10	X11	Y11	Z11	X12	Y12	Z12	X13	Y13	Z13	X14	Y14	Z14	X15	Y15	Z15	X16	Y16	Z16	X17	Y17	Z17	X18	Y18	Z18	X19	Y19	Z19	X20	Y20	Z20	X21	Y21	Z21	X22	Y22	Z22
358	11.933333333333334	2.380505430928508	0.8296363547000235	0.9192298268290001	2.39560900542388	0.8057876025213634	0.8344804120112178	2.39789505882188	0.433032805898995	0.8328819962363204	2.4732876749559267	0.1033675732573148	0.8886168534814014	2.293056089371517	0.03306144534129905	0.8568381316012937	2.345752728573957	0.022999688236986164	0.8136385920466596	2.5274551405175933	0.03409669593818484	0.9089368223497958	2.339353258687797	0.8109948859655517	1.0027721251144786	2.1841486932682574	0.5029961331666307	1.0196782579602872	2.1738553651202	0.13815796938766425	1.0212878079686434	1.9882631443222336	0.070511503476639	1.049758328663864	2.0111117773574985	0.07185439558033292	1.1018360336134678	2.2149892285355666	0.05664084505004111	1.0189413823641542	2.297320447754379	1.4275096392185658	0.9052577974668015	2.2143111667765973	1.6748851307365247	0.885894195199404	2.1556452731936715	1.5615462070141557	0.8882959335683822	2.343597243948943	1.3492969321480852	0.7350097596789376	2.3304466476450503	1.0484230254457343	0.6943163366096986	2.2927488954957376	0.8100756237336072	0.672841806183349	2.3649222669034478	1.3535257923650856	1.0595499240123474	2.4102018745406832	1.055363586819332	1.097626550382252	2.3994886194125757	0.8252964357182971	1.1152559289232507
359	11.966666666666669	2.3698435996647556	0.827726577130261	0.9192813933004681	2.383757643365572	0.803303142826078	0.8357104110502385	2.3931921498446833	0.4297922054560763	0.8326161372884295	2.4756926022147585	0.10060181374042622	0.892383778258957	2.289157777541051	0.03239949952280525	0.8573746363918542	2.344848726929036	0.020711631643012807	0.8135497640826657	2.5285601008235905	0.03300241468009453	0.9116613308950542	2.3296971409796186	0.8077302590726226	1.0048745508203027	2.174375306930131	0.49833668089344285	1.0212564653501168	2.1356116250248554	0.1387457485106848	1.022850178869517	1.946871714306356	0.08178688640122342	1.049242830037479	1.971040697001034	0.07969428400697506	1.1018138185251014	2.169657697670932	0.05599978974863711	1.0178579161966652	2.2825256634327062	1.425426125395374	0.9062144086181086	2.1993534389228353	1.672605422187751	0.8882436932582293	2.1360515388045336	1.5565292073678312	0.8901169372330655	2.327120500300971	1.3466781947964193	0.7342298900408847	2.3063536234503412	1.0469077126143822	0.6933416846449161	2.2600687188107806	0.8094000665826243	0.6690703899680304	2.351476419586196	1.3517767008635067	1.0603514077636047	2.3944289548514246	1.0558823544000824	1.101586607608703	2.3918089925190285	0.8231366726382372	1.1175244515494476
360	12.0	2.356329334057312	0.8253952723722805	0.919450203692693	2.3699158956015354	0.8000139916326955	0.8370319272586096	2.386400043838106	0.42771430920735737	0.8326386155152119	2.477621207511837	0.09845904948016841	0.8954324550819783	2.2854900508650813	0.03129864311040589	0.8573813269692295	2.3447154725872505	0.01766157830448422	0.8135305179688292	2.5295199150811385	0.03216495523600562	0.914136442315242	2.315917643919403	0.8036656587995189	1.0067887395158908	2.1628178547236194	0.49329435574932706	1.022724251688661	2.1021224355709056	0.13942018519132365	1.0242205049927546	1.9122785508933697	0.0906875350895536	1.048929738957	1.9374066495173543	0.08616659331297796	1.101875758809779	2.1301196184291458	0.05619389979920079	1.0169858808137002	2.266213077084874	1.4230771325128992	0.9080158239580818	2.1826720519894915	1.668423979888009	0.8926207517715495	2.115238050386442	1.5510639659907222	0.8928842034864445	2.3100730902644537	1.3432655330826884	0.734350275157398	2.28057814761438	1.0452802457965702	0.6933104058252866	2.223156409865918	0.8099330470795487	0.6663095593587232	2.335577163254778	1.3493338016393885	1.0619726289542641	2.376338010807126	1.0558033735080092	1.1062236298374846	2.3830491979590307	0.8206210480408893	1.1198152734928697
361	12.033333333333331	2.3400037652372556	0.8227482577774271	0.9200198028138841	2.3542023451700933	0.7963029981144871	0.8384021437440269	2.378201056324005	0.4269439110527816	0.8328022792058574	2.4787204442325734	0.09714967787551454	0.8972238047909216	2.2826569267420576	0.029929966625003922	0.8571717591075791	2.3452012025004487	0.014616063996289837	0.8139060387416877	2.5304174262243446	0.031543529847049896	0.9159179912499528	2.298026780716745	0.7992157782407445	1.008408615492054	2.1485035880757954	0.48870526165473405	1.0240388077754328	2.0743896357167317	0.13959337624222878	1.0253557941201994	1.8853259551998385	0.09491057084268067	1.0492056665548737	1.911010005060306	0.0892873031744239	1.1023692244779426	2.098173053526477	0.056693385853463646	1.0166807608143524	2.2483125909670045	1.4205360907348243	0.910613367906197	2.1646010843432664	1.6630282399564493	0.8983985635731875	2.0947969963987183	1.5461660874875962	0.8959484332806809	2.292040404664465	1.3393263683343997	0.7352246571718004	2.253242728723757	1.0435436688475617	0.694320839228206	2.183276166956034	0.8117155301222587	0.6648480078914263	2.3174324173382597	1.3463827937504265	1.06433213070421	2.358072119625762	1.0548706614230197	1.1101855756397632	2.373462117666963	0.8178420079431757	1.1219279192887328
362	12.066666666666666	2.3211358461103266	0.8199803912716691	0.921220008426133	2.336718623798906	0.79280275243233	0.839831474238637	2.368978130155642	0.42804050257686543	0.8331763051686959	2.4790574263275786	0.09662092217584377	0.8977330293350964	2.2810023454880337	0.028499562008704942	0.85700268959694	2.345713997518081	0.012525336724875073	0.8145531247196989	2.531396348337081	0.030967971184374686	0.9169021450860123	2.2767776551613506	0.7949487438578929	1.0097981595348804	2.1316505158828307	0.4847818371691618	1.025147356560438	2.0527407471591497	0.13875692460360595	1.0262422127814363	1.8658503583630897	0.09308827359863683	1.0501229547791002	1.8918290776937206	0.08769572558739454	1.1035141061252156	2.0743457636385556	0.057043759048066855	1.0169416953113086	2.2288020494893743	1.4178325219282275	0.9138957464589673	2.145739558269653	1.6577328361232617	0.904627339698993	2.076067622058807	1.542831889532265	0.8987344589717079	2.2725092426449045	1.3351755272672874	0.7367017828385625	2.224656459887812	1.041790001196241	0.6964075563668523	2.141828531649034	0.8147501229125462	0.6648630394420341	2.297292265113798	1.3431331584196866	1.067344867960718	2.341220702585838	1.0530488419970243	1.1126423900922755	2.363258298432577	0.8148975532503941	1.123742456708611
363	12.1	2.3000609444212294	0.8173628246238082	0.9231485079067966	2.317548372138183	0.7900766465084661	0.841347572952577	2.358769567669925	0.43164080389263493	0.8340280454170976	2.47887179466989	0.09671856284081237	0.8972961706997563	2.2806418553841987	0.027138943483393393	0.8570287543747004	2.345710084649341	0.011902759356645604	0.8151523622411719	2.5325203293553677	0.030320364875835743	0.9171426155801184	2.25310432815652	0.7913796431330253	1.0111057940796535	2.113076063795326	0.4814699952301406	1.0259658283221724	2.036752549165086	0.13666912495536035	1.026798343240288	1.8528037942284634	0.08551058789596588	1.0512722297180834	1.8789228088448322	0.08139076239385086	1.1051597017611725	2.057995345752874	0.05698855716323445	1.0174148173572108	2.207663890369297	1.4150871942171614	0.9177613735890441	2.126334564352044	1.6534020497912583	0.9109980968605118	2.0585667825196134	1.5411588891276775	0.9016804527824969	2.2510188542426075	1.3312380715294858	0.7387153086397312	2.195343538403285	1.0402942617676731	0.6994252995459614	2.1001778574712557	0.8190440784753125	0.6664196800739418	2.2754217608732343	1.3398438274245619	1.0709764516188152	2.3260836095200528	1.0505239640952895	1.1136357437377495	2.3524636180550833	0.8119213008048174	1.1251980251184233
364	12.133333333333333	2.277013035809533	0.8152031538899708	0.9258078702023559	2.296726617076637	0.7883885587790739	0.843043746092539	2.3471527604152898	0.4378146665251005	0.8356053810028462	2.478276891226246	0.09740874991093772	0.8963495035108381	2.2815325562588287	0.025828754024066543	0.8573291084512498	2.3449445363017642	0.012619385391095372	0.8154613694214438	2.5336333018364123	0.029825651716340613	0.9166858363515324	2.227632803118529	0.7888254111712406	1.0124654287539734	2.093434632273372	0.47880820595094314	1.0264634853580108	2.025380544479225	0.13338663436563375	1.026898283808636	1.8446187452186853	0.07414774530219247	1.0522156146658086	1.8705457839947066	0.07188176870535468	1.1067978574641966	2.0476773595678712	0.05641960609933209	1.0176538721472397	2.184856739147115	1.4126327158313667	0.9222204204369157	2.106085047389008	1.6503965026406833	0.9178203172484004	2.0401338197934464	1.5403860910944334	0.9060993499335794	2.2273255426678564	1.3280132621582534	0.7412798845670783	2.165955111739615	1.039519323711839	0.7031444568760725	2.059549480893325	0.8244905618461236	0.6695564401619978	2.2521264249199118	1.3368050453718805	1.0752883981192456	2.3115563376776604	1.047708271993945	1.114015325550881	2.3407197252411813	0.8091225881018649	1.126367213806816
365	12.166666666666666	2.2521288244013506	0.8138161416286354	0.9292045968812328	2.2742155109956688	0.7877481828568129	0.8451977256553033	2.3332009759949193	0.44551459603501037	0.8379142828110253	2.476966793979916	0.09902924701774575	0.8950917316151112	2.283494332025188	0.02449609358704572	0.8578804685000397	2.3436356221282315	0.014060119829085883	0.8153950883385791	2.5341560836683623	0.030360875010668177	0.9154019851375446	2.200704180638457	0.7874256608546741	1.0140494645762197	2.0730564823261037	0.4769419604457469	1.0267753147874081	2.017375775501595	0.12919893389654374	1.0265229022507598	1.8397175386472175	0.061849381964499996	1.0529197763817162	1.8649015713492696	0.06146779404317334	1.1079156953658356	2.0417282490980373	0.055268692787676946	1.0174440957227147	2.160444863341112	1.4109335718034806	0.9274446223984705	2.0843911898108014	1.6488923691172963	0.9255515059568439	2.0188391730460173	1.5398163992919234	0.9130292942041951	2.2015741613879647	1.3259126475047456	0.7443302054563993	2.137091174713691	1.040019242288236	0.7073805281431095	2.020971799724256	0.8307908866444618	0.6742710029696724	2.227658244215373	1.3342122465377702	1.0804991949576104	2.295605011077381	1.0451626791629645	1.1150563473154511	2.3271733924022384	0.8067805882107811	1.1276031398458686
